<?xml version="1.0" standalone="no"?>
<!DOCTYPE svg PUBLIC "-//W3C//DTD SVG 20010904//EN"
 "http://www.w3.org/TR/2001/REC-SVG-20010904/DTD/svg10.dtd">
<svg version="1.0" xmlns="http://www.w3.org/2000/svg"
 width="512.000000pt" height="512.000000pt" viewBox="0 0 512.000000 512.000000"
 preserveAspectRatio="xMidYMid meet">

<g transform="translate(0.000000,512.000000) scale(0.100000,-0.100000)"
fill="#000000" stroke="none">
<path d="M413 5106 c-195 -49 -353 -209 -399 -402 -42 -180 26 -393 164 -515
50 -44 142 -95 207 -114 l40 -12 5 -424 5 -424 27 -50 c32 -60 87 -114 148
-146 42 -22 59 -24 250 -29 l205 -5 0 -425 0 -425 -205 -5 c-237 -6 -264 -14
-344 -100 -83 -89 -80 -71 -86 -549 l-5 -424 -40 -12 c-216 -64 -366 -253
-382 -480 -10 -154 42 -290 157 -406 146 -148 360 -196 555 -125 135 49 229
135 296 270 80 164 72 345 -24 509 -59 100 -211 214 -313 233 l-35 6 3 404 3
404 28 27 27 28 185 3 185 3 0 -198 c0 -146 4 -214 15 -258 47 -181 199 -333
380 -380 89 -23 2101 -23 2190 0 181 47 333 199 380 380 11 44 15 112 15 258
l0 198 185 -3 185 -3 27 -28 28 -27 3 -404 3 -404 -35 -6 c-100 -19 -251 -131
-313 -232 -147 -242 -77 -566 154 -720 218 -144 491 -118 674 65 182 182 209
457 65 674 -64 97 -158 167 -276 207 l-55 19 -5 423 c-5 420 -5 423 -29 468
-32 61 -86 116 -146 148 -48 26 -57 27 -255 32 l-205 5 0 425 0 425 205 5
c191 5 208 7 250 29 61 32 116 86 148 146 l27 50 5 423 5 423 58 20 c377 127
488 599 208 880 -113 113 -252 166 -406 156 -192 -13 -362 -125 -443 -291 -43
-87 -55 -139 -55 -236 -1 -149 51 -274 156 -379 64 -64 167 -125 233 -137 l35
-6 -3 -404 -3 -404 -28 -27 -27 -28 -185 -3 -185 -3 0 198 c0 146 -4 214 -15
258 -47 181 -199 333 -380 380 -89 23 -2101 23 -2190 0 -181 -47 -333 -199
-380 -380 -11 -44 -15 -112 -15 -258 l0 -198 -185 3 -185 3 -27 28 -28 27 -3
404 -3 404 35 6 c102 19 254 133 313 233 95 163 104 343 24 508 -64 134 -160
222 -297 272 -85 30 -223 39 -301 19z m253 -230 c64 -30 123 -87 155 -152 20
-41 24 -64 24 -139 0 -78 -4 -97 -27 -140 -32 -60 -87 -114 -148 -146 -37 -20
-60 -24 -135 -24 -105 0 -162 22 -228 88 -144 144 -113 392 61 494 98 58 199
64 298 19z m4061 -6 c237 -116 236 -453 -3 -571 -41 -20 -64 -24 -139 -24 -75
0 -98 4 -135 24 -109 56 -171 150 -178 271 -5 96 21 170 82 234 104 107 239
131 373 66z m-1071 -1062 c76 -40 107 -70 145 -140 l34 -63 0 -1045 0 -1045
-27 -51 c-40 -76 -70 -107 -140 -145 l-63 -34 -1045 0 -1045 0 -63 34 c-70 38
-100 69 -140 145 l-27 51 0 1045 0 1045 25 50 c43 86 125 154 215 176 17 4
491 6 1055 6 l1025 -2 51 -27z m-2981 -2990 c60 -31 114 -86 146 -148 20 -37
24 -60 24 -135 0 -75 -4 -98 -24 -139 -76 -154 -261 -224 -411 -155 -79 37
-125 81 -162 157 -28 56 -32 76 -32 136 1 138 81 251 212 301 60 23 185 14
247 -17z m4029 11 c71 -26 139 -92 173 -166 95 -207 -62 -447 -292 -447 -217
0 -365 209 -299 421 24 77 115 171 189 195 71 24 163 22 229 -3z"/>
<path d="M2133 3185 c-81 -22 -132 -52 -193 -114 -64 -63 -103 -138 -119 -225
-7 -37 -11 -209 -11 -443 0 -422 2 -438 59 -467 38 -20 64 -20 102 0 50 25 59
63 59 249 l0 165 210 0 210 0 0 -165 c0 -121 4 -175 14 -200 15 -35 59 -65 96
-65 12 0 35 7 51 16 57 29 59 45 59 467 0 234 -4 406 -11 443 -45 246 -289
403 -526 339z m210 -227 c23 -13 55 -42 72 -66 30 -43 30 -46 33 -188 l3 -144
-210 0 -211 0 0 130 c0 95 4 141 15 168 49 116 186 162 298 100z"/>
<path d="M3144 3181 c-17 -11 -36 -34 -43 -52 -8 -22 -11 -196 -11 -571 0
-591 0 -592 59 -622 38 -20 64 -20 102 0 59 30 59 31 59 624 0 593 0 594 -59
624 -40 21 -69 20 -107 -3z"/>
</g>
</svg>
