<svg width="42" height="42" viewBox="0 0 42 42" fill="none" xmlns="http://www.w3.org/2000/svg">
<g clip-path="url(#clip0_205_728)">
<path d="M21.0001 0.5C9.8199 0.5 0.725342 9.69649 0.725342 21C0.725342 32.3035 9.8199 41.5 21.0001 41.5C32.1802 41.5 41.2748 32.3035 41.2748 21C41.2748 9.69649 32.1802 0.5 21.0001 0.5ZM21.0001 39.7917C10.7521 39.7917 2.41487 31.3618 2.41487 21C2.41487 10.6382 10.7521 2.20831 21.0001 2.20831C31.248 2.20831 39.5852 10.6382 39.5852 21C39.5852 31.3618 31.248 39.7917 21.0001 39.7917Z" fill="#FF4E4E"/>
<path d="M16.7761 9.04163H11.7074C10.3099 9.04163 9.1731 10.1911 9.1731 11.6041V16.7291C9.1731 18.1422 10.3099 19.2916 11.7074 19.2916H16.7761C18.1736 19.2916 19.3104 18.1422 19.3104 16.7291V11.6041C19.3104 10.1911 18.1736 9.04163 16.7761 9.04163ZM17.6208 16.7291C17.6208 17.2004 17.2413 17.5833 16.776 17.5833H11.7074C11.2421 17.5833 10.8625 17.2005 10.8625 16.7291V11.6041C10.8625 11.1329 11.2421 10.7499 11.7074 10.7499H16.776C17.2413 10.7499 17.6208 11.1328 17.6208 11.6041V16.7291Z" fill="#FF4E4E"/>
<path d="M30.2927 9.04163H25.224C23.8265 9.04163 22.6897 10.1911 22.6897 11.6041V16.7291C22.6897 18.1422 23.8265 19.2916 25.224 19.2916H30.2927C31.6902 19.2916 32.8271 18.1422 32.8271 16.7291V11.6041C32.8271 10.1911 31.6902 9.04163 30.2927 9.04163ZM31.1375 16.7291C31.1375 17.2004 30.758 17.5833 30.2927 17.5833H25.224C24.7587 17.5833 24.3792 17.2005 24.3792 16.7291V11.6041C24.3792 11.1329 24.7587 10.7499 25.224 10.7499H30.2927C30.758 10.7499 31.1375 11.1328 31.1375 11.6041V16.7291Z" fill="#FF4E4E"/>
<path d="M16.7761 22.7083H11.7074C10.3099 22.7083 9.1731 23.8577 9.1731 25.2708V30.3958C9.1731 31.8088 10.3099 32.9583 11.7074 32.9583H16.7761C18.1736 32.9583 19.3104 31.8088 19.3104 30.3958V25.2708C19.3104 23.8578 18.1736 22.7083 16.7761 22.7083ZM17.6208 30.3958C17.6208 30.867 17.2413 31.2499 16.776 31.2499H11.7074C11.2421 31.2499 10.8625 30.8671 10.8625 30.3958V25.2708C10.8625 24.7995 11.2421 24.4166 11.7074 24.4166H16.776C17.2413 24.4166 17.6208 24.7994 17.6208 25.2708V30.3958Z" fill="#FF4E4E"/>
<path d="M30.2927 22.7083H25.224C23.8265 22.7083 22.6897 23.8577 22.6897 25.2708V30.3958C22.6897 31.8088 23.8265 32.9583 25.224 32.9583H30.2927C31.6902 32.9583 32.8271 31.8088 32.8271 30.3958V25.2708C32.8271 23.8578 31.6902 22.7083 30.2927 22.7083ZM31.1375 30.3958C31.1375 30.867 30.758 31.2499 30.2927 31.2499H25.224C24.7587 31.2499 24.3792 30.8671 24.3792 30.3958V25.2708C24.3792 24.7995 24.7587 24.4166 25.224 24.4166H30.2927C30.758 24.4166 31.1375 24.7994 31.1375 25.2708V30.3958Z" fill="#FF4E4E"/>
</g>
<defs>
<clipPath id="clip0_205_728">
<rect x="0.725342" y="0.5" width="40.5494" height="41" rx="16" fill="white"/>
</clipPath>
</defs>
</svg>
