<svg width="38" height="37" viewBox="0 0 38 37" fill="none" xmlns="http://www.w3.org/2000/svg">
<g clip-path="url(#clip0_205_756)">
<path d="M19.8913 17.6553C19.616 17.377 19.1704 17.377 18.8951 17.6553C18.6206 17.9329 18.6206 18.3834 18.8951 18.6618C19.1704 18.9394 19.616 18.9394 19.8913 18.6618C20.1658 18.3834 20.1658 17.9329 19.8913 17.6553Z" fill="#0073C6"/>
<path d="M28.8511 8.59537C27.4755 7.20457 25.2486 7.2045 23.873 8.59537C22.501 9.9826 22.5009 12.2404 23.8732 13.6288C25.2457 15.0157 27.4787 15.0163 28.8511 13.6287C30.2265 12.238 30.2268 9.9863 28.8511 8.59537ZM27.8555 12.622C27.0323 13.4544 25.6924 13.4544 24.8688 12.6221C24.0455 11.7892 24.0454 10.4343 24.8686 9.602C25.6939 8.76755 27.0301 8.76741 27.8555 9.602C28.6808 10.4364 28.6809 11.7875 27.8555 12.622Z" fill="#0073C6"/>
<path d="M36.8157 0.541868C36.6774 0.402141 36.4887 0.326405 36.2926 0.333879C36.1334 0.339645 32.3435 0.493679 27.8384 2.10371C24.2284 3.3925 21.2194 5.23771 18.8949 7.58809C18.374 8.11475 17.8671 8.67324 17.3822 9.25343C15.0838 7.88548 13.2421 8.31441 12.0777 8.94443C9.3969 10.3951 7.73755 14.3339 7.73755 17.1513C7.73776 17.4391 7.90932 17.6987 8.17233 17.8088C8.25941 17.8453 8.35093 17.8631 8.4416 17.8631C8.62485 17.8631 8.80486 17.7907 8.93953 17.6546C10.3533 16.2251 12.0972 16.3145 12.6668 16.3902L12.9134 16.6395C12.4282 17.8068 12.0373 18.9676 11.7507 20.0966C11.6472 20.5052 11.6821 20.9375 11.8359 21.333C11.1581 21.6489 10.5042 22.1126 9.93482 22.6883C8.1227 24.5206 7.75473 28.9861 7.73994 29.1753C7.72375 29.3829 7.79823 29.5873 7.94389 29.7346C8.07645 29.8686 8.25575 29.9431 8.4416 29.9431C8.46005 29.9431 8.47856 29.9424 8.49708 29.9409C8.68419 29.926 13.1007 29.5539 14.9128 27.7217C15.482 27.1462 15.9406 26.4851 16.2529 25.7999C16.667 25.9645 17.0932 25.9848 17.4764 25.8855C18.5925 25.5957 19.7404 25.2007 20.8951 24.71L21.1416 24.9593C21.2165 25.5354 21.3049 27.2986 19.8912 28.728C19.6899 28.9315 19.6296 29.2377 19.7386 29.5036C19.8475 29.7696 20.1042 29.943 20.3889 29.943C23.1753 29.943 27.0708 28.2652 28.5055 25.5546C29.1286 24.3775 29.5528 22.5153 28.1999 20.1913C28.7734 19.7011 29.3259 19.1886 29.8469 18.6618C32.1715 16.3114 33.9964 13.2689 35.271 9.61908C36.8634 5.06368 37.0157 1.23161 37.0214 1.07074C37.0284 0.873213 36.9539 0.681667 36.8157 0.541868ZM9.31151 15.6202C9.74883 13.4803 11.019 11.1322 12.7424 10.1996C13.894 9.57644 15.1528 9.63752 16.4912 10.3783C15.351 11.8946 14.3597 13.5282 13.5334 15.2532C13.5229 15.2467 13.3962 15.0856 13.1608 15.0319C13.064 15.0098 11.2014 14.6047 9.31151 15.6202ZM13.9172 26.715C12.9493 27.6937 10.6786 28.2099 9.24337 28.4207C9.45189 26.9694 9.96248 24.6736 10.9304 23.6949C11.4725 23.1468 12.101 22.7313 12.7327 22.4973L15.1018 24.8926C14.8703 25.5314 14.4594 26.1669 13.9172 26.715ZM17.1267 24.5065C16.923 24.5592 16.687 24.4818 16.5116 24.3047C15.6008 23.3838 15.2445 23.0236 15.1327 22.9106C14.9277 22.7033 14.425 22.195 13.3146 21.0722C13.1391 20.8943 13.0625 20.6558 13.1145 20.4502C13.34 19.5623 13.6349 18.6513 13.9935 17.7316L19.8151 23.6178C18.9053 23.9805 18.0045 24.2786 17.1267 24.5065ZM27.2643 24.8829C26.342 26.6253 24.0197 27.9097 21.9034 28.3518C22.5781 27.0679 22.7269 25.4335 22.4803 24.4425C22.4231 24.2123 22.2746 24.0965 22.2663 24.0829C23.9722 23.2475 25.5878 22.2452 27.0875 21.0923C27.8202 22.4457 27.8805 23.7186 27.2643 24.8829ZM28.8515 17.6551C28.2172 18.2965 27.5341 18.9161 26.8212 19.4967C25.1076 20.8919 23.2215 22.0736 21.2092 23.0143L14.5904 16.3221C15.5208 14.2873 16.6895 12.3802 18.0692 10.6478C18.6439 9.92651 19.2567 9.23577 19.8907 8.59472C21.9763 6.48593 24.6679 4.80764 27.893 3.59957L33.7918 9.56392C32.5971 12.8248 30.9373 15.5463 28.8515 17.6551ZM34.2983 8.06265L29.3777 3.08742C32.0586 2.2455 34.3908 1.93024 35.5549 1.81692C35.4428 2.99418 35.1309 5.35231 34.2983 8.06265Z" fill="#0073C6"/>
<path d="M17.8996 29.7344C17.6246 29.4564 17.1788 29.4566 16.904 29.7345L14.9131 31.7482C14.6383 32.0263 14.6383 32.477 14.9133 32.7549C15.1883 33.0328 15.6341 33.0328 15.9089 32.7547L17.8998 30.741C18.1746 30.463 18.1745 30.0123 17.8996 29.7344Z" fill="#0073C6"/>
<path d="M7.94415 19.6681C7.66932 19.3901 7.22363 19.3901 6.94858 19.668L4.95702 21.681C4.68204 21.9589 4.68197 22.4096 4.95681 22.6876C5.23157 22.9655 5.67726 22.9658 5.95238 22.6878L7.94394 20.6748C8.21892 20.3969 8.21899 19.9462 7.94415 19.6681Z" fill="#0073C6"/>
<path d="M12.922 30.7417C12.6472 30.4637 12.2014 30.4637 11.9264 30.7416L7.15766 35.5627C6.88268 35.8406 6.88268 36.2913 7.15759 36.5693C7.43235 36.8473 7.87818 36.8474 8.15316 36.5694L12.9219 31.7483C13.1969 31.4704 13.1969 31.0196 12.922 30.7417Z" fill="#0073C6"/>
<path d="M7.29016 30.7417C7.01533 30.4637 6.5695 30.4637 6.29459 30.7416L1.52582 35.5627C1.25085 35.8406 1.25085 36.2913 1.52575 36.5693C1.80051 36.8473 2.24635 36.8474 2.52132 36.5694L7.29009 31.7483C7.56507 31.4704 7.56507 31.0196 7.29016 30.7417Z" fill="#0073C6"/>
<path d="M6.94784 24.7012C6.673 24.4233 6.22717 24.4233 5.95226 24.7013L1.1842 29.523C0.909292 29.8011 0.909292 30.2517 1.18427 30.5297C1.45917 30.8077 1.90493 30.8077 2.17984 30.5297L6.94791 25.7079C7.22281 25.4299 7.22281 24.9792 6.94784 24.7012Z" fill="#0073C6"/>
<path d="M22.8777 14.6349C22.6027 14.3569 22.1571 14.3569 21.882 14.6349L20.8866 15.6414C20.6117 15.9193 20.6117 16.37 20.8866 16.6481C21.1616 16.926 21.6073 16.926 21.8822 16.6481L22.8777 15.6416C23.1526 15.3636 23.1526 14.9129 22.8777 14.6349Z" fill="#0073C6"/>
</g>
<defs>
<clipPath id="clip0_205_756">
<rect x="0.978027" y="0.333374" width="36.0439" height="36.4444" fill="white"/>
</clipPath>
</defs>
</svg>
